<?xml version="1.0" encoding="UTF-8"?>
<svg version="1.1" xmlns="http://www.w3.org/2000/svg" width="660" height="534">
<path d="M0 0 C3.43746931 0.46609753 5.38927372 0.28115886 8.6875 -0.5 C11.4375 -0.625 11.4375 -0.625 13.6875 -0.5 C14.0175 -0.17 14.3475 0.16 14.6875 0.5 C16.16398876 0.59823996 17.64525417 0.62973519 19.125 0.625 C19.92808594 0.62757812 20.73117187 0.63015625 21.55859375 0.6328125 C23.74147931 0.63578326 23.74147931 0.63578326 25.6875 -0.5 C25.6875 0.16 25.6875 0.82 25.6875 1.5 C26.925 1.314375 28.1625 1.12875 29.4375 0.9375 C32.45029577 0.55288777 34.78760827 0.4125406 37.6875 1.5 C38.0175 0.84 38.3475 0.18 38.6875 -0.5 C96.42720257 7.5052307 147.75059561 34.13262817 183.5625 80.9375 C217.99711384 127.07744509 231.92273469 184.51002512 223.7265625 241.3984375 C217.90534033 277.49464418 203.06170071 312.27971959 179.6875 340.5 C179.20635742 341.08265625 178.72521484 341.6653125 178.22949219 342.265625 C168.91385975 353.48032849 159.15904252 363.44835563 147.6875 372.5 C146.22376953 373.68916016 146.22376953 373.68916016 144.73046875 374.90234375 C120.28495161 394.36651023 91.70646858 407.22766155 61.375 414.3125 C60.540896 414.50763184 59.70679199 414.70276367 58.84741211 414.90380859 C44.43052379 418.06478285 30.20200891 418.87926159 15.5 418.8125 C14.6424411 418.81034485 13.7848822 418.8081897 12.90133667 418.80596924 C-0.05220879 418.75380954 -12.61803669 418.28512471 -25.3125 415.5 C-26.71846436 415.20198486 -26.71846436 415.20198486 -28.15283203 414.89794922 C-81.82607053 403.26395451 -130.10623206 371.62563374 -160.57519531 325.59228516 C-163.30533116 321.31221669 -165.82420686 316.92363225 -168.3125 312.5 C-168.67939941 311.86578125 -169.04629883 311.2315625 -169.42431641 310.578125 C-196.41104429 263.78709269 -202.26840149 206.05497596 -188.77783203 154.10327148 C-173.83152179 99.44595892 -138.38623863 53.604055 -89.37109375 25.31640625 C-70.05723633 14.44153633 -49.72558284 6.95502896 -28 2.5 C-26.99308105 2.29213867 -25.98616211 2.08427734 -24.94873047 1.87011719 C-19.0554723 0.75123093 -13.50119109 0.32804169 -7.50317383 0.52734375 C-4.30989173 0.48748555 -3.42805713 -0.51744259 0 0 Z M-76.3125 36.5 C-77.23651611 36.99717529 -77.23651611 36.99717529 -78.17919922 37.50439453 C-86.3407384 41.91831017 -93.96623416 46.82587358 -101.3125 52.5 C-102.13105469 53.12519531 -102.94960937 53.75039062 -103.79296875 54.39453125 C-129.4660163 74.43501829 -148.42186383 99.07886089 -162.3125 128.5 C-162.84875 129.63050781 -163.385 130.76101562 -163.9375 131.92578125 C-183.77716801 175.89337884 -184.86715317 228.67919733 -168.42578125 273.828125 C-156.46793419 305.21190586 -137.72850856 335.22816153 -111.3125 356.5 C-109.80816406 357.74330078 -109.80816406 357.74330078 -108.2734375 359.01171875 C-99.74715497 365.96371005 -90.82141577 371.97607361 -81.3125 377.5 C-80.30944824 378.08394531 -80.30944824 378.08394531 -79.28613281 378.6796875 C-50.58368263 395.1521577 -18.41414058 402.95399648 14.5625 402.875 C15.41922302 402.87445618 16.27594604 402.87391235 17.15863037 402.87335205 C31.32620951 402.83212984 44.87285587 401.84783855 58.6875 398.5 C60.0180542 398.18651611 60.0180542 398.18651611 61.37548828 397.86669922 C93.88764575 389.99086358 123.54820523 373.53871902 147.6875 350.5 C149.07613663 349.30409229 150.47120958 348.11558294 151.875 346.9375 C165.81586681 334.74281979 176.8062486 318.65154364 185.6875 302.5 C186.0273291 301.8822168 186.3671582 301.26443359 186.71728516 300.62792969 C211.09717548 255.59917004 216.29503796 203.13620381 202.3515625 153.9453125 C190.55190415 114.33913931 166.3448663 78.6601615 133.35107422 53.7578125 C131.86168783 52.63170175 130.38503125 51.48880064 128.91015625 50.34375 C121.87577241 45.01242751 114.38741129 40.70875925 106.625 36.54638672 C104.90437786 35.61712935 103.2008094 34.65644884 101.5 33.69140625 C47.33721394 4.3757983 -22.95621175 7.3952986 -76.3125 36.5 Z " fill="#f58220" transform="translate(315.3125,58.5)"/>
<path d="" fill="#f58220" transform="translate(0,0)"/>
<path d="" fill="#f58220" transform="translate(0,0)"/>
</svg>
