<?xml version="1.0" encoding="UTF-8"?>
<svg version="1.1" xmlns="http://www.w3.org/2000/svg" width="52" height="52">
<path d="M0 0 C1.65 0 3.3 0 5 0 C5.33 1.32 5.66 2.64 6 4 C16.56 4 27.12 4 38 4 C38.33 2.68 38.66 1.36 39 0 C40.65 0 42.3 0 44 0 C44.1546875 0.9590625 44.1546875 0.9590625 44.3125 1.9375 C44.6528125 2.9584375 44.6528125 2.9584375 45 4 C45.99 4.33 46.98 4.66 48 5 C47.67 6.65 47.34 8.3 47 10 C46.34 10 45.68 10 45 10 C44.896875 10.639375 44.79375 11.27875 44.6875 11.9375 C44.460625 12.618125 44.23375 13.29875 44 14 C43.01 14.33 42.02 14.66 41 15 C40.01 14.34 39.02 13.68 38 13 C37.75765625 13.67546875 37.5153125 14.3509375 37.265625 15.046875 C34.43713635 22.57500632 34.43713635 22.57500632 31.75 25.1875 C29.66222654 27.01291896 29.66222654 27.01291896 29.375 30.5 C29.62822111 34.23435618 29.62822111 34.23435618 32.875 36.125 C33.90625 36.74375 34.9375 37.3625 36 38 C37.91575271 41.46660013 38.65758617 45.0622409 39 49 C38.34 49.99 37.68 50.98 37 52 C34.5 52.375 34.5 52.375 32 52 C30 49 30 49 29.6875 46.4375 C29.23986903 43.82330385 29.23986903 43.82330385 26.875 42.625 C22.70928429 41.71940963 18.83828202 42.08085899 15 44 C14.29508733 46.32206525 13.62787571 48.65593068 13 51 C12 52 12 52 9.5 52.125 C7 52 7 52 6 51 C5.71869366 46.21779216 5.8417887 42.31642261 8 38 C9.75392762 36.65146131 11.57991647 35.48890694 13.4453125 34.30078125 C15.34805154 32.95689253 15.34805154 32.95689253 15.9375 29.6875 C15.958125 28.800625 15.97875 27.91375 16 27 C15.401875 26.731875 14.80375 26.46375 14.1875 26.1875 C11.11025167 24.51699376 9.36589483 23.13290433 8.26953125 19.73828125 C8.11871094 18.93777344 7.96789063 18.13726563 7.8125 17.3125 C7.65394531 16.50425781 7.49539063 15.69601562 7.33203125 14.86328125 C7.22246094 14.24839844 7.11289063 13.63351562 7 13 C5.8553125 13.556875 5.8553125 13.556875 4.6875 14.125 C3.800625 14.41375 2.91375 14.7025 2 15 C1.01 14.34 0.02 13.68 -1 13 C-1 12.01 -1 11.02 -1 10 C-1.99 9.67 -2.98 9.34 -4 9 C-3.67 7.35 -3.34 5.7 -3 4 C-2.34 4 -1.68 4 -1 4 C-0.67 2.68 -0.34 1.36 0 0 Z M2 2 C2 5.3 2 8.6 2 12 C2.33 12 2.66 12 3 12 C3 8.7 3 5.4 3 2 C2.67 2 2.34 2 2 2 Z M41 2 C41 5.3 41 8.6 41 12 C41.33 12 41.66 12 42 12 C42 8.7 42 5.4 42 2 C41.67 2 41.34 2 41 2 Z M6 6 C6 6.33 6 6.66 6 7 C16.56 7 27.12 7 38 7 C38 6.67 38 6.34 38 6 C27.44 6 16.88 6 6 6 Z M10 10 C10.11509661 11.41750563 10.24253658 12.83401169 10.375 14.25 C10.44460938 15.03890625 10.51421875 15.8278125 10.5859375 16.640625 C11.02383909 19.13583782 11.64905983 20.8610114 13 23 C15.53770003 24.28254644 15.53770003 24.28254644 18 25 C18.0469016 28.45061766 17.90024068 31.65772713 17 35 C15.33238536 36.56705497 13.64253327 37.51723528 11.65625 38.640625 C8.53605053 41.20154344 8.40893615 45.1693532 8 49 C8.99 49 9.98 49 11 49 C11.185625 47.906875 11.37125 46.81375 11.5625 45.6875 C13 42 13 42 16.1875 40 C21.10028707 38.71140011 24.42353085 39.35588271 29.25 40.5625 C32.16589037 42.95769566 32.9171661 46.47258655 34 50 C34.99 49.505 34.99 49.505 36 49 C35.57865591 42.61278376 35.57865591 42.61278376 32.30859375 37.4453125 C30.18470931 36.21982028 30.18470931 36.21982028 27 35 C26.70659419 31.94857953 26.55945496 29.04135314 27 26 C29.375 23.9375 29.375 23.9375 32 22 C33.80893385 17.83423406 34.34329116 14.36082928 33 10 C32.71125 11.0725 32.4225 12.145 32.125 13.25 C31 17 31 17 29 21 C24.38 21 19.76 21 15 21 C13.53766488 17.3441622 12.21677946 13.7372512 11 10 C10.67 10 10.34 10 10 10 Z M14 10 C14.33 12.64 14.66 15.28 15 18 C15.33 18 15.66 18 16 18 C16.33 15.36 16.66 12.72 17 10 C16.01 10 15.02 10 14 10 Z M20 10 C17.7508092 11.82703227 17.7508092 11.82703227 17.75 14.5 C17.7508092 17.17296773 17.7508092 17.17296773 20 19 C22.58354218 19.16687448 22.58354218 19.16687448 25 19 C25.67673447 15.59679066 25.67673447 15.59679066 26 12 C25.34 11.34 24.68 10.68 24 10 C22.68 10 21.36 10 20 10 Z M27 10 C27.33 12.64 27.66 15.28 28 18 C28.33 18 28.66 18 29 18 C29.33 15.36 29.66 12.72 30 10 C29.01 10 28.02 10 27 10 Z " fill="#f58220" transform="translate(4,0)"/>
</svg>
