<?xml version="1.0" encoding="UTF-8"?>
<svg version="1.1" xmlns="http://www.w3.org/2000/svg" width="52" height="52">
<path d="M0 0 C1.4370809 -0.05422947 2.87475462 -0.09289723 4.3125 -0.125 C5.11300781 -0.14820312 5.91351562 -0.17140625 6.73828125 -0.1953125 C9 0 9 0 12 2 C12.47114738 4.7427508 12.17805784 7.19558897 12 10 C11.67 10.33 11.34 10.66 11 11 C12.95803507 11.05389087 14.91648909 11.09274217 16.875 11.125 C17.96554688 11.14820313 19.05609375 11.17140625 20.1796875 11.1953125 C23.1371051 11.30060534 23.1371051 11.30060534 25 9 C27.625 9.375 27.625 9.375 30 10 C29.36406068 14.70595099 29.36406068 14.70595099 27.375 16.3125 C25.56783896 18.13967295 25.56783896 18.13967295 26.25 21.875 C26.49244017 23.25135307 26.74196209 24.62648573 27 26 C27.0825 26.928125 27.165 27.85625 27.25 28.8125 C28.31546936 31.92011898 30.1424695 32.57123475 33 34 C34.78215749 35.78215749 34.17282247 38.34288464 34.1875 40.75 C34.20167969 41.79671875 34.21585938 42.8434375 34.23046875 43.921875 C34 47 34 47 32 52 C17.81 52 3.62 52 -11 52 C-11 35 -11 35 -8 31 C-8.33 30.67 -8.66 30.34 -9 30 C-9.04080783 28.00041636 -9.04254356 25.99954746 -9 24 C-8.34 24 -7.68 24 -7 24 C-7.12375 23.154375 -7.2475 22.30875 -7.375 21.4375 C-6.90152307 17.09729484 -5.27706576 15.5625398 -2.3125 12.515625 C-0.78178874 11.08217424 -0.78178874 11.08217424 -1 9 C-3.475 8.01 -3.475 8.01 -6 7 C-6 6.01 -6 5.02 -6 4 C-4.35 3.67 -2.7 3.34 -1 3 C-0.67 2.01 -0.34 1.02 0 0 Z M2 3 C3 5 3 5 3 5 Z M3 11 C5.51070754 14.66887552 5.51070754 14.66887552 9.25 16.8125 C9.8275 16.874375 10.405 16.93625 11 17 C7.52263974 13.21965377 7.52263974 13.21965377 3 11 Z M-2 17 C-2.33 18.98 -2.66 20.96 -3 23 C-0.525 23.99 -0.525 23.99 2 25 C2.33 24.34 2.66 23.68 3 23 C2.34 23 1.68 23 1 23 C0.87625 22.195625 0.7525 21.39125 0.625 20.5625 C0.315625 19.2940625 0.315625 19.2940625 0 18 C-0.66 17.67 -1.32 17.34 -2 17 Z M12 21 C13.32 23.31 14.64 25.62 16 28 C17.32 27.67 18.64 27.34 20 27 C19.34 24.36 18.68 21.72 18 19 C14.81509993 18.7226499 14.81509993 18.7226499 12 21 Z M11 25 C12 27 12 27 12 27 Z M5 26 C5 26.66 5 27.32 5 28 C5.66 28 6.32 28 7 28 C6.34 29.98 5.68 31.96 5 34 C6.32 33.01 7.64 32.02 9 31 C8.73323796 29.01508358 8.73323796 29.01508358 8 27 C7.01 26.67 6.02 26.34 5 26 Z M12 27 C13 30 13 30 13 30 Z M13 34 C14 36 14 36 14 36 Z M-7 36 C-7.66 37.32 -8.32 38.64 -9 40 C-8.01 41.485 -8.01 41.485 -7 43 C-3.91634129 43.2502157 -3.91634129 43.2502157 -1 43 C-1.495 41.824375 -1.495 41.824375 -2 40.625 C-3 38 -3 38 -3 36 C-4.32 36 -5.64 36 -7 36 Z M21 37 C19.68031822 38.10528442 19.68031822 38.10528442 19.75 40.875 C19.70551216 43.99091888 19.70551216 43.99091888 21.5 45.875 C21.995 46.24625 22.49 46.6175 23 47 C24.31223496 43.06329512 23.24296256 40.87511856 22 37 C21.67 37 21.34 37 21 37 Z M6 38 C6 39.65 6 41.3 6 43 C8.64 43 11.28 43 14 43 C14 42.01 14 41.02 14 40 C11.36 39.34 8.72 38.68 6 38 Z M30 38 C30 39.65 30 41.3 30 43 C30.66 43 31.32 43 32 43 C31.67 41.35 31.34 39.7 31 38 C30.67 38 30.34 38 30 38 Z " fill="#f58220" transform="translate(14,0)"/>
</svg>
