<?xml version="1.0" encoding="UTF-8"?>
<svg version="1.1" xmlns="http://www.w3.org/2000/svg" width="52" height="52">
<path d="M0 0 C3.0625 0.1875 3.0625 0.1875 5.0625 2.1875 C7.23243558 2.77724842 9.424201 3.28858111 11.625 3.75 C17.96527778 5.09027778 17.96527778 5.09027778 19.0625 6.1875 C19.29951239 9.04627909 19.48469182 11.88633297 19.625 14.75 C19.66818359 15.55630859 19.71136719 16.36261719 19.75585938 17.19335938 C19.86225262 19.19118805 19.96290888 21.1893207 20.0625 23.1875 C20.64 22.6925 21.2175 22.1975 21.8125 21.6875 C24.0625 20.1875 24.0625 20.1875 28.0625 20.1875 C28.0625 22.1875 28.0625 22.1875 25.5625 24.8125 C24.7375 25.59625 23.9125 26.38 23.0625 27.1875 C24.135 27.27 25.2075 27.3525 26.3125 27.4375 C30.49716942 28.27443388 31.52108026 28.86876967 34.0625 32.1875 C34.98976249 37.13716321 35.27203626 42.73272162 33.00390625 47.3359375 C31.26903908 49.44660676 29.50909095 50.96420453 27.0625 52.1875 C25.61212893 52.27699417 24.15771371 52.3050844 22.70458984 52.30102539 C21.7912085 52.30090454 20.87782715 52.30078369 19.93676758 52.30065918 C18.49466919 52.29298523 18.49466919 52.29298523 17.0234375 52.28515625 C16.14083252 52.28414917 15.25822754 52.28314209 14.34887695 52.28210449 C11.04507146 52.27686395 7.74128445 52.26290273 4.4375 52.25 C-2.94625 52.229375 -10.33 52.20875 -17.9375 52.1875 C-17.9375 37.0075 -17.9375 21.8275 -17.9375 6.1875 C-10.12171053 2.83787594 -10.12171053 2.83787594 -7.0625 2.0625 C-3.77902805 1.14312785 -3.33807152 0.2130684 0 0 Z M-0.9375 2.1875 C-1.5975 3.5075 -2.2575 4.8275 -2.9375 6.1875 C-5.2475 6.1875 -7.5575 6.1875 -9.9375 6.1875 C-9.9375 7.5075 -9.9375 8.8275 -9.9375 10.1875 C-3.3375 10.1875 3.2625 10.1875 10.0625 10.1875 C10.0625 8.8675 10.0625 7.5475 10.0625 6.1875 C9.134375 6.084375 8.20625 5.98125 7.25 5.875 C3.94330243 5.16179072 3.18776242 4.63155178 1.0625 2.1875 C0.4025 2.1875 -0.2575 2.1875 -0.9375 2.1875 Z M-15.9375 8.1875 C-15.9375 22.0475 -15.9375 35.9075 -15.9375 50.1875 C-6.6975 50.1875 2.5425 50.1875 12.0625 50.1875 C12.0625 49.8575 12.0625 49.5275 12.0625 49.1875 C-0.8075 48.6925 -0.8075 48.6925 -13.9375 48.1875 C-13.9375 34.9875 -13.9375 21.7875 -13.9375 8.1875 C-14.5975 8.1875 -15.2575 8.1875 -15.9375 8.1875 Z M14.0625 8.1875 C14.3925 12.4775 14.7225 16.7675 15.0625 21.1875 C15.3925 21.1875 15.7225 21.1875 16.0625 21.1875 C16.0625 16.8975 16.0625 12.6075 16.0625 8.1875 C15.4025 8.1875 14.7425 8.1875 14.0625 8.1875 Z M-11.9375 11.1875 C-11.9375 22.7375 -11.9375 34.2875 -11.9375 46.1875 C-5.0075 46.1875 1.9225 46.1875 9.0625 46.1875 C8.835625 44.475625 8.60875 42.76375 8.375 41 C8.02562831 37.27655925 7.88409321 35.58486059 9.4375 32.125 C9.97375 31.485625 10.51 30.84625 11.0625 30.1875 C12.66281344 26.98687313 11.09423691 24.46478194 10.0625 21.1875 C11.0525 20.8575 12.0425 20.5275 13.0625 20.1875 C13.0625 17.2175 13.0625 14.2475 13.0625 11.1875 C12.0725 11.6825 12.0725 11.6825 11.0625 12.1875 C9.49187486 12.28322577 7.9172882 12.3182405 6.34375 12.3203125 C5.41175781 12.32160156 4.47976562 12.32289062 3.51953125 12.32421875 C2.54371094 12.32035156 1.56789063 12.31648437 0.5625 12.3125 C-0.90123047 12.31830078 -0.90123047 12.31830078 -2.39453125 12.32421875 C-3.79251953 12.32228516 -3.79251953 12.32228516 -5.21875 12.3203125 C-6.07533203 12.31918457 -6.93191406 12.31805664 -7.81445312 12.31689453 C-9.9375 12.1875 -9.9375 12.1875 -11.9375 11.1875 Z M13.0625 23.1875 C13.3925 24.5075 13.7225 25.8275 14.0625 27.1875 C15.7125 27.1875 17.3625 27.1875 19.0625 27.1875 C17.76782323 25.12759522 17.76782323 25.12759522 16.0625 23.1875 C15.0725 23.1875 14.0825 23.1875 13.0625 23.1875 Z M11.75 31.6875 C9.42525602 35.13156515 9.4045677 38.20819863 10.0625 42.1875 C11.68120194 45.82957936 13.49196383 48.35398143 17.0625 50.1875 C21.3782052 50.59851954 23.95047997 50.64681262 27.9375 49 C31.00149307 46.38659414 31.80402667 44.18370944 32.31640625 40.2265625 C32.51762462 36.73445017 32.34693224 34.6088811 30.375 31.6875 C27.68273779 29.94116776 26.21089906 29.83767788 23.0625 30.1875 C22.7325 31.5075 22.4025 32.8275 22.0625 34.1875 C21.4025 34.1875 20.7425 34.1875 20.0625 34.1875 C19.7325 32.8675 19.4025 31.5475 19.0625 30.1875 C15.91410094 29.83767788 14.44226221 29.94116776 11.75 31.6875 Z " fill="#f58220" transform="translate(17.9375,-0.1875)"/>
<path d="M0 0 C4.70588235 0.70588235 4.70588235 0.70588235 6 2 C8.52596259 2.23653523 11.03107207 2.42173692 13.5625 2.5625 C14.27341797 2.60568359 14.98433594 2.64886719 15.71679688 2.69335938 C17.47761912 2.79971777 19.2387832 2.90038846 21 3 C20.67 3.99 20.34 4.98 20 6 C19.00097656 5.98839844 18.00195312 5.97679687 16.97265625 5.96484375 C15.68230469 5.95582031 14.39195313 5.94679688 13.0625 5.9375 C11.13083984 5.92009766 11.13083984 5.92009766 9.16015625 5.90234375 C6.13701597 5.63467451 6.13701597 5.63467451 5 7 C3.00041636 7.04080783 0.99954746 7.04254356 -1 7 C-1.04254356 5.00045254 -1.04080783 2.99958364 -1 1 C-0.67 0.67 -0.34 0.34 0 0 Z M1 3 C1 3.66 1 4.32 1 5 C1.66 5 2.32 5 3 5 C3 4.34 3 3.68 3 3 C2.34 3 1.68 3 1 3 Z " fill="#f58220" transform="translate(8,14)"/>
<path d="M0 0 C1.98 0 3.96 0 6 0 C6.33 0.66 6.66 1.32 7 2 C10.04581269 2.46954261 10.04581269 2.46954261 13.5625 2.625 C14.76003906 2.69976563 15.95757812 2.77453125 17.19140625 2.8515625 C18.11824219 2.90054687 19.04507812 2.94953125 20 3 C20 3.66 20 4.32 20 5 C17.3618463 6.31907685 15.37722213 6.06132406 12.4375 6 C10.62539219 5.96229685 8.81190256 5.95346639 7 6 C6.67 6.33 6.34 6.66 6 7 C4.00041636 7.04080783 1.99954746 7.04254356 0 7 C0 4.69 0 2.38 0 0 Z " fill="#f58220" transform="translate(7,22)"/>
<path d="M0 0 C1.98 0 3.96 0 6 0 C6.33 0.99 6.66 1.98 7 3 C7.66 2.67 8.32 2.34 9 2 C11.6723621 1.86584528 14.32250488 1.95681459 17 2 C17.33 2.99 17.66 3.98 18 5 C17.21753906 5.06058594 16.43507813 5.12117188 15.62890625 5.18359375 C14.11103516 5.30927734 14.11103516 5.30927734 12.5625 5.4375 C11.55316406 5.51871094 10.54382813 5.59992187 9.50390625 5.68359375 C7.06359221 5.73211468 7.06359221 5.73211468 6 7 C4.00041636 7.04080783 1.99954746 7.04254356 0 7 C0 4.69 0 2.38 0 0 Z " fill="#f58220" transform="translate(7,30)"/>
<path d="M0 0 C2.875 -0.125 2.875 -0.125 6 0 C6.66 0.66 7.32 1.32 8 2 C10.21072977 2.24253813 10.21072977 2.24253813 12.625 2.125 C13.44226562 2.10695312 14.25953125 2.08890625 15.1015625 2.0703125 C15.72804688 2.04710937 16.35453125 2.02390625 17 2 C17.33 2.99 17.66 3.98 18 5 C17.19175781 5.06058594 16.38351563 5.12117188 15.55078125 5.18359375 C13.94783203 5.30927734 13.94783203 5.30927734 12.3125 5.4375 C11.25675781 5.51871094 10.20101563 5.59992187 9.11328125 5.68359375 C6.03038426 5.94108202 6.03038426 5.94108202 3.16796875 6.59765625 C2.45253906 6.73042969 1.73710937 6.86320312 1 7 C0 6 0 6 -0.0625 2.9375 C-0.041875 1.968125 -0.02125 0.99875 0 0 Z M2 2 C2 2.66 2 3.32 2 4 C2.66 4 3.32 4 4 4 C4 3.34 4 2.68 4 2 C3.34 2 2.68 2 2 2 Z " fill="#f58220" transform="translate(7,38)"/>
<path d="M0 0 C4.16138263 -0.08159574 7.9472484 0.01751476 12 1 C12 1.66 12 2.32 12 3 C7.71 3 3.42 3 -1 3 C-0.67 2.01 -0.34 1.02 0 0 Z " fill="#f58220" transform="translate(15,6)"/>
<path d="M0 0 C-0.8125 2.9375 -0.8125 2.9375 -2 6 C-2.99 6.33 -3.98 6.66 -5 7 C-4.625 4.0625 -4.625 4.0625 -4 1 C-2 0 -2 0 0 0 Z " fill="#f58220" transform="translate(34,31)"/>
<path d="M0 0 C1.32 0 2.64 0 4 0 C4 0.66 4 1.32 4 2 C2.68 2 1.36 2 0 2 C0 1.34 0 0.68 0 0 Z " fill="#f58220" transform="translate(9,7)"/>
</svg>
