<?xml version="1.0" encoding="UTF-8"?>
<svg version="1.1" xmlns="http://www.w3.org/2000/svg" width="52" height="52">
<path d="M0 0 C2.875 0.5 2.875 0.5 4.875 2.5 C4.875 3.49 4.875 4.48 4.875 5.5 C5.535 5.5 6.195 5.5 6.875 5.5 C9.22773568 9.02910353 9.28253493 10.34314368 8.875 14.5 C7.375 17.875 7.375 17.875 5.875 20.5 C6.638125 20.54125 7.40125 20.5825 8.1875 20.625 C10.875 21.5 10.875 21.5 12.625 24.125 C13.875 27.5 13.875 27.5 14.375 31.1875 C14.63146933 34.39406451 14.63146933 34.39406451 16.0625 36.375 C18.57474914 37.93432705 20.96650946 38.17683438 23.875 38.5 C23.875 41.14 23.875 43.78 23.875 46.5 C23.215 46.5 22.555 46.5 21.875 46.5 C21.895625 47.304375 21.91625 48.10875 21.9375 48.9375 C21.875 51.5 21.875 51.5 20.875 52.5 C17.8686175 52.61356724 14.88607558 52.66418912 11.87890625 52.66796875 C10.52308693 52.67296135 10.52308693 52.67296135 9.13987732 52.67805481 C7.22403473 52.68312796 5.30818328 52.68546302 3.39233398 52.68530273 C0.45346582 52.68748813 -2.48502652 52.70563665 -5.42382812 52.72460938 C-7.28124871 52.72754337 -9.13867109 52.72952813 -10.99609375 52.73046875 C-11.87945908 52.73765427 -12.7628244 52.74483978 -13.67295837 52.75224304 C-19.89617861 52.72882139 -19.89617861 52.72882139 -22.125 50.5 C-24.01867762 46.71264476 -24.32075936 43.70882632 -24.125 39.5 C-22.05006906 38.38842985 -20.33064274 37.53628989 -18 37.125 C-15.97090965 36.67288468 -15.97090965 36.67288468 -15.0546875 34.7421875 C-14.10318153 32.44737898 -13.72756718 30.45118134 -13.375 28 C-12.85137291 25.39474065 -12.5483165 23.92671209 -10.6640625 22.02734375 C-9 20.9375 -9 20.9375 -6.125 19.5 C-6.929375 18.2315625 -6.929375 18.2315625 -7.75 16.9375 C-9.51198945 12.53252637 -8.90561649 10.83541406 -7.125 6.5 C-4.15429533 0.66468725 -4.15429533 0.66468725 0 0 Z M-4.125 8.5 C-4.125 9.16 -4.125 9.82 -4.125 10.5 C-1.15434491 10.15772428 -1.15434491 10.15772428 1.875 9.5 C2.205 8.84 2.535 8.18 2.875 7.5 C-0.75385324 7.34850702 -0.75385324 7.34850702 -4.125 8.5 Z M-3.125 14.5 C-2.465 15.82 -1.805 17.14 -1.125 18.5 C0.195 18.17 1.515 17.84 2.875 17.5 C3.205 16.18 3.535 14.86 3.875 13.5 C-0.01959074 13.28918149 -0.01959074 13.28918149 -3.125 14.5 Z M1.875 21.5 C0.555 21.83 -0.765 22.16 -2.125 22.5 C-1.795 24.15 -1.465 25.8 -1.125 27.5 C0.195 26.84 1.515 26.18 2.875 25.5 C2.545 24.18 2.215 22.86 1.875 21.5 Z M-5.125 28.5 C-5.125 33.45 -5.125 38.4 -5.125 43.5 C-1.495 43.5 2.135 43.5 5.875 43.5 C5.875 38.55 5.875 33.6 5.875 28.5 C3.895 29.16 1.915 29.82 -0.125 30.5 C-2.6 29.51 -2.6 29.51 -5.125 28.5 Z M-10.125 30.5 C-9.125 32.5 -9.125 32.5 -9.125 32.5 Z M-9.125 39.5 C-10.1510734 40.81337396 -11.15227325 42.14664105 -12.125 43.5 C-11.135 43.5 -10.145 43.5 -9.125 43.5 C-8.795 42.18 -8.465 40.86 -8.125 39.5 C-8.455 39.5 -8.785 39.5 -9.125 39.5 Z M8.875 40.5 C9.205 41.49 9.535 42.48 9.875 43.5 C10.535 43.17 11.195 42.84 11.875 42.5 C10.885 41.84 9.895 41.18 8.875 40.5 Z M-21.125 41.5 C-20.125 43.5 -20.125 43.5 -20.125 43.5 Z M-17.125 46.5 C-17.455 47.82 -17.785 49.14 -18.125 50.5 C-14.825 50.5 -11.525 50.5 -8.125 50.5 C-10.85106304 47.21185401 -10.85106304 47.21185401 -14.875 46.25 C-15.98875 46.37375 -15.98875 46.37375 -17.125 46.5 Z M-0.125 46.5 C-0.455 47.82 -0.785 49.14 -1.125 50.5 C5.145 50.5 11.415 50.5 17.875 50.5 C17.875 49.18 17.875 47.86 17.875 46.5 C11.935 46.5 5.995 46.5 -0.125 46.5 Z " fill="#f58220" transform="translate(26.125,-0.5)"/>
</svg>
