<?xml version="1.0" encoding="UTF-8"?>
<svg version="1.1" xmlns="http://www.w3.org/2000/svg" width="34" height="34">
<path d="M0 0 C5.01791684 2.41935276 8.49958655 5.9991731 11 11 C11.5072965 16.55531248 11.76260422 21.41830236 9.3125 26.5 C2.59412173 33.76311164 2.59412173 33.76311164 -2.609375 34.23828125 C-13.14881343 34.48734758 -13.14881343 34.48734758 -18 30 C-22.83106777 24.51608524 -23.35024743 21.19460601 -23.28125 13.984375 C-22.77938024 8.65897925 -20.24614624 6.0977955 -16.375 2.6875 C-11.25527798 -0.95019722 -6.13002394 -0.57769859 0 0 Z M-17 7 C-19.6846399 10.51780401 -20.82640162 13.57324127 -21 18 C-20.09488011 22.17809807 -18.71681502 25.22174369 -15.8125 28.375 C-11.62520545 30.79432574 -7.74299636 32.52271256 -2.84765625 31.58984375 C1.22112133 30.20327709 4.52641181 28.61524427 7 25 C8.82231529 20.41247993 9.49958837 16.43589363 7.9375 11.6875 C6.02759658 7.40727001 3.1633473 5.08167365 -1 3 C-7.41978608 2.29567095 -12.01180764 2.49846055 -17 7 Z " fill="#f58220" transform="translate(23,0)"/>
<path d="M0 0 C0.99 0 1.98 0 3 0 C2.87625 0.845625 2.7525 1.69125 2.625 2.5625 C3.15049599 7.37954657 5.67406568 9.65426845 9 13 C7.68 13.33 6.36 13.66 5 14 C-0.85625555 8.10888579 -0.85625555 8.10888579 -1.4375 3.625 C-1 1 -1 1 0 0 Z " fill="#f58220" transform="translate(16,10)"/>
<path d="M0 0 C0.99 0 1.98 0 3 0 C3 1.32 3 2.64 3 4 C1.68 3.67 0.36 3.34 -1 3 C-0.67 2.01 -0.34 1.02 0 0 Z " fill="#f58220" transform="translate(16,26)"/>
<path d="M0 0 C0.99 0.33 1.98 0.66 3 1 C2.67 1.99 2.34 2.98 2 4 C0.68 3.67 -0.64 3.34 -2 3 C-2 2.34 -2 1.68 -2 1 C-1.34 0.67 -0.68 0.34 0 0 Z " fill="#f58220" transform="translate(27,15)"/>
<path d="M0 0 C1.98 0.495 1.98 0.495 4 1 C4 1.66 4 2.32 4 3 C2.68 3.33 1.36 3.66 0 4 C0 2.68 0 1.36 0 0 Z " fill="#f58220" transform="translate(5,15)"/>
<path d="M0 0 C0.99 0 1.98 0 3 0 C3 1.32 3 2.64 3 4 C1.68 3.67 0.36 3.34 -1 3 C-0.67 2.01 -0.34 1.02 0 0 Z " fill="#f58220" transform="translate(16,4)"/>
<path d="M0 0 C0.99 0 1.98 0 3 0 C3 0.99 3 1.98 3 3 C2.01 3 1.02 3 0 3 C0 2.01 0 1.02 0 0 Z " fill="#f58220" transform="translate(24,24)"/>
<path d="M0 0 C0.99 0 1.98 0 3 0 C3 0.99 3 1.98 3 3 C2.01 3 1.02 3 0 3 C0 2.01 0 1.02 0 0 Z " fill="#f58220" transform="translate(7,24)"/>
<path d="M0 0 C0.99 0 1.98 0 3 0 C3 0.99 3 1.98 3 3 C2.01 3 1.02 3 0 3 C0 2.01 0 1.02 0 0 Z " fill="#f58220" transform="translate(24,7)"/>
<path d="M0 0 C0.99 0 1.98 0 3 0 C3 0.99 3 1.98 3 3 C2.01 3 1.02 3 0 3 C0 2.01 0 1.02 0 0 Z " fill="#f58220" transform="translate(7,7)"/>
</svg>
