<?xml version="1.0" encoding="UTF-8"?>
<svg version="1.1" xmlns="http://www.w3.org/2000/svg" width="666" height="666">
<path d="M0 0 C1.31328026 -0.01052147 1.31328026 -0.01052147 2.65309143 -0.02125549 C5.46409313 -0.03865949 8.27488389 -0.0451083 11.0859375 -0.046875 C12.52956161 -0.04788712 12.52956161 -0.04788712 14.00234985 -0.04891968 C28.68995869 -0.03256462 42.98753104 0.50809488 57.4609375 3.203125 C58.44465332 3.38004883 59.42836914 3.55697266 60.44189453 3.73925781 C113.21270881 13.40987072 165.02684118 38.08449434 202.4609375 77.203125 C204.93730123 79.69992077 207.42927255 82.17279175 209.96875 84.60546875 C216.66228673 91.08920806 222.49708801 97.94759967 228.09472656 105.39257812 C229.42803194 107.15951749 230.7825511 108.90831267 232.140625 110.65625 C274.97537005 166.53442395 291.27716109 239.07005595 283.37768555 308.39672852 C275.89043815 362.98154637 252.31316792 415.34733442 214.70703125 455.76953125 C212.82637837 457.80717776 211.04449154 459.88405106 209.2734375 462.015625 C199.64659521 473.04355701 188.1694709 482.48287907 176.4609375 491.203125 C175.89020508 491.63077148 175.31947266 492.05841797 174.73144531 492.49902344 C143.60001949 515.69395492 107.94683929 531.36593411 70.1484375 539.890625 C68.90803711 540.17631348 68.90803711 540.17631348 67.64257812 540.46777344 C50.22001006 544.206774 32.69953543 545.70920811 14.90869141 545.59423828 C11.96079291 545.57812421 9.01426454 545.5942313 6.06640625 545.61328125 C-11.55001019 545.63307221 -29.03795874 543.85039978 -46.2265625 539.890625 C-47.64122803 539.57097778 -47.64122803 539.57097778 -49.08447266 539.24487305 C-94.5095457 528.72085185 -136.89603449 507.27541231 -171.10546875 475.44921875 C-173.14311526 473.56856587 -175.21998856 471.78667904 -177.3515625 470.015625 C-188.37949451 460.38878271 -197.81881657 448.9116584 -206.5390625 437.203125 C-206.96670898 436.63239258 -207.39435547 436.06166016 -207.83496094 435.47363281 C-232.20512851 402.7648462 -248.22750466 365.15902482 -256.3515625 325.265625 C-256.5465332 324.30865723 -256.74150391 323.35168945 -256.94238281 322.36572266 C-260.08187413 306.05088815 -260.94853933 290.03614569 -260.9140625 273.453125 C-260.91318634 272.42021332 -260.91231018 271.38730164 -260.91140747 270.3230896 C-260.74229909 209.69042008 -240.5826911 149.08594969 -201.5390625 102.203125 C-201.06549316 101.62804199 -200.59192383 101.05295898 -200.10400391 100.46044922 C-194.85357249 94.09034961 -189.50923672 87.91621038 -183.5390625 82.203125 C-181.04226673 79.72676127 -178.56939575 77.23478995 -176.13671875 74.6953125 C-160.39663449 58.44591889 -141.18529915 45.2963276 -121.5390625 34.203125 C-120.86278809 33.81447266 -120.18651367 33.42582031 -119.48974609 33.02539062 C-83.93179396 12.74388589 -41.1170236 0.22237535 0 0 Z M-104.68017578 43.22509766 C-106.50522301 44.18532082 -108.34466148 45.10966661 -110.19140625 46.02734375 C-132.33986908 57.19187434 -151.7110986 73.11876752 -169.5390625 90.203125 C-170.36019531 90.98300781 -171.18132812 91.76289063 -172.02734375 92.56640625 C-177.18062669 97.57728414 -181.8042589 102.90378909 -186.2421875 108.55566406 C-187.15328738 109.71306278 -188.07051325 110.86565264 -188.9921875 112.01464844 C-208.81404617 136.75443038 -224.36856408 164.77921425 -233.5390625 195.203125 C-233.80267578 196.06679688 -234.06628906 196.93046875 -234.33789062 197.8203125 C-254.75402147 265.71009701 -245.87987036 337.02451452 -212.5390625 399.203125 C-206.1461959 410.56335743 -198.73598401 421.08313205 -190.5390625 431.203125 C-189.83652344 432.09773438 -189.13398438 432.99234375 -188.41015625 433.9140625 C-166.06046099 461.98495047 -138.26747916 484.52591134 -106.5390625 501.203125 C-105.79011719 501.59999512 -105.04117188 501.99686523 -104.26953125 502.40576172 C-44.83034076 533.46840667 25.78690365 537.59617125 89.4609375 518.203125 C90.26499023 517.96287598 91.06904297 517.72262695 91.89746094 517.47509766 C120.41481076 508.79053566 147.35230596 493.92049367 170.4609375 475.203125 C171.35554688 474.50058594 172.25015625 473.79804687 173.171875 473.07421875 C201.24276297 450.72452349 223.78372384 422.93154166 240.4609375 391.203125 C240.85780762 390.45417969 241.25467773 389.70523437 241.66357422 388.93359375 C272.82667362 329.30218102 276.79035234 258.40200218 257.51318359 194.48046875 C242.48045937 147.65928779 213.40149256 103.56812846 174.4609375 73.203125 C173.3942978 72.33652198 172.32926616 71.46793697 171.265625 70.59765625 C98.09788851 11.18190259 -9.46615035 -2.08426148 -104.68017578 43.22509766 Z " fill="#f58220" transform="translate(321.5390625,60.796875)"/>
</svg>
