<?xml version="1.0" encoding="UTF-8"?>
<svg version="1.1" xmlns="http://www.w3.org/2000/svg" width="666" height="666">
<path d="M0 0 C1.05165344 0.00182281 2.10330688 0.00364563 3.18682861 0.00552368 C19.45603379 0.05289054 35.35760927 0.63997113 51.4375 3.3125 C52.48309082 3.47878906 53.52868164 3.64507812 54.60595703 3.81640625 C129.85860438 16.05813831 206.47437152 56.01736667 254.30859375 116.625 C256.55385885 119.4593897 258.89658438 122.19247006 261.25 124.9375 C305.14735313 177.70916372 333.33844075 249.8578688 333.640625 318.75 C333.64768463 319.81999741 333.65474426 320.88999481 333.66201782 321.99241638 C333.88948432 366.5905974 333.88948432 366.5905974 330.4375 385.3125 C330.22818848 386.47104492 330.01887695 387.62958984 329.80322266 388.82324219 C319.55828836 444.23144308 297.78038159 496.18237934 262.4375 540.3125 C261.64859375 541.31410156 260.8596875 542.31570313 260.046875 543.34765625 C246.09816007 560.78354991 230.10613813 577.6457329 212.4375 591.3125 C211.31239057 592.23498149 210.19018332 593.16100971 209.0703125 594.08984375 C199.63665139 601.87118866 189.74863694 608.74634526 179.4375 615.3125 C178.82503418 615.70501953 178.21256836 616.09753906 177.58154297 616.50195312 C157.7111816 629.13609374 136.50623805 639.18697335 114.4375 647.3125 C113.5623877 647.63943848 112.68727539 647.96637695 111.78564453 648.30322266 C81.24939601 659.58131637 47.50389384 666.37188412 14.90234375 666.515625 C13.83376129 666.52268463 12.76517883 666.52974426 11.66421509 666.53701782 C-32.80280858 666.76418478 -32.80280858 666.76418478 -51.5625 663.3125 C-53.26841309 663.00650879 -53.26841309 663.00650879 -55.00878906 662.69433594 C-110.53356735 652.50317305 -162.34445517 630.72579819 -206.5625 595.3125 C-207.56410156 594.52359375 -208.56570312 593.7346875 -209.59765625 592.921875 C-227.03354991 578.97316007 -243.8957329 562.98113813 -257.5625 545.3125 C-258.48498149 544.18739057 -259.41100971 543.06518332 -260.33984375 541.9453125 C-268.12118866 532.51165139 -274.99634526 522.62363694 -281.5625 512.3125 C-281.95501953 511.70003418 -282.34753906 511.08756836 -282.75195312 510.45654297 C-312.9763799 462.92103578 -332.51721698 404.50719636 -332.765625 347.875 C-332.77268463 346.80500259 -332.77974426 345.73500519 -332.78701782 344.63258362 C-333.0141513 300.09969652 -333.0141513 300.09969652 -329.5625 281.3125 C-329.35850586 280.16990723 -329.15451172 279.02731445 -328.94433594 277.85009766 C-317.70318703 216.28558128 -291.46072562 159.05126777 -249.5625 112.3125 C-249.11342285 111.80702637 -248.6643457 111.30155273 -248.20166016 110.78076172 C-238.28285741 99.63884503 -227.97726255 88.69708004 -216.25 79.44140625 C-213.4156103 77.19614115 -210.68252994 74.85341562 -207.9375 72.5 C-195.06783944 61.78633928 -181.02339986 52.71423322 -166.5625 44.3125 C-165.73153809 43.8278125 -164.90057617 43.343125 -164.04443359 42.84375 C-130.5507157 23.48482218 -93.42172223 10.57196381 -55.3125 4.0625 C-54.42796143 3.91127686 -53.54342285 3.76005371 -52.63208008 3.60424805 C-35.11676576 0.80993928 -17.71691659 -0.06402521 0 0 Z M-199.5625 86.3125 C-200.15740234 86.80733887 -200.75230469 87.30217773 -201.36523438 87.81201172 C-208.41155156 93.6894649 -215.19857706 99.6923117 -221.5625 106.3125 C-224.14187997 108.90899029 -226.73866764 111.48423885 -229.359375 114.0390625 C-235.91623854 120.45146773 -241.91472493 127.06970497 -247.5625 134.3125 C-248.33980469 135.28445312 -249.11710937 136.25640625 -249.91796875 137.2578125 C-284.6616087 181.3363891 -306.51914487 233.85791699 -314.5625 289.3125 C-314.67432617 290.06692383 -314.78615234 290.82134766 -314.90136719 291.59863281 C-325.98612991 368.91223022 -305.75661679 454.37048756 -258.9453125 517.1640625 C-258.15898437 518.20304687 -257.37265625 519.24203125 -256.5625 520.3125 C-255.77617187 521.37210938 -254.98984375 522.43171875 -254.1796875 523.5234375 C-244.37187492 536.63165054 -233.47269282 548.58834553 -221.9375 560.1875 C-221.45648834 560.67377869 -220.97547668 561.16005737 -220.47988892 561.66107178 C-213.85722377 568.33977627 -206.95952612 574.49803443 -199.5625 580.3125 C-198.83144043 580.89225586 -198.10038086 581.47201172 -197.34716797 582.06933594 C-130.58558681 634.63275278 -46.33849777 658.73454894 38.125 649.0625 C84.23755626 643.24017076 129.05507376 628.19364526 168.4375 603.3125 C169.47390625 602.66023437 170.5103125 602.00796875 171.578125 601.3359375 C199.64045023 583.10292939 227.06062798 559.96745759 247.4375 533.3125 C248.50815115 531.97864711 249.58129197 530.64679065 250.65625 529.31640625 C301.90921677 465.40385072 325.21005956 381.069169 316.6875 299.8359375 C308.88792304 231.51198377 280.80304835 169.42678974 234.5546875 118.65234375 C233.14734475 117.09699632 231.75646313 115.52658863 230.3828125 113.94140625 C226.7259368 109.72248156 223.00221426 105.898669 218.734375 102.30078125 C216.46141382 100.33320091 214.2849458 98.28149519 212.1081543 96.20874023 C193.07783587 78.20693151 170.7054452 63.25746855 147.4375 51.3125 C146.5098584 50.83570801 145.5822168 50.35891602 144.62646484 49.86767578 C49.18153443 1.34243189 -69.35962849 3.73924326 -199.5625 86.3125 Z " fill="#f58220" transform="translate(332.5625,-0.31250000000000006)"/>
</svg>
